# xmcd
#
# Track frame offsets:
#	150
#	16471
#	36893
#	47890
#	64036
#
# Disc length: 1035 seconds
#
# Revision: 1
# Processed by: cddbd v1.5.2PL0 Copyright (c) Steve Scherf et al.
# Submitted via: audiograbber 1.83.01
#
DISCID=3d040905
DTITLE=Xmas on mars - Playin' it simple, but playin' it loud
DYEAR=2010
DGENRE=Country
TTITLE0=No one knows
TTITLE1=Down by the old canal
TTITLE2=Dylan woke up
TTITLE3=Painting reindeers
TTITLE4=Snakes in the mirror
EXTD=
EXTT0=
EXTT1=
EXTT2=
EXTT3=
EXTT4=
PLAYORDER=
